<svg xmlns="http://www.w3.org/2000/svg" width="64" height="64" viewBox="0 0 64 64" role="img" aria-label="의욕 좋음"><title>의욕 좋음</title><defs><linearGradient id="motivation-good-body" x1="0" y1="0" x2="0.2" y2="1"><stop stop-color="#f8b37c"/><stop offset=".48" stop-color="#F58A35"/><stop offset="1" stop-color="#b56627"/></linearGradient><linearGradient id="motivation-good-gloss" x2="0" y2="1"><stop stop-color="white" stop-opacity=".6"/><stop offset="1" stop-color="white" stop-opacity="0"/></linearGradient></defs><g transform="rotate(45 32 32)"><path d="M32 6 L54 28 Q55 30 52 30 H41 V54 Q41 57 38 57 H26 Q23 57 23 54 V30 H12 Q9 30 10 28 Z" transform="translate(0 1)" fill="#563013" stroke="#563013" stroke-width="4" stroke-linejoin="round"/><path d="M32 6 L54 28 Q55 30 52 30 H41 V54 Q41 57 38 57 H26 Q23 57 23 54 V30 H12 Q9 30 10 28 Z" fill="url(#motivation-good-body)" stroke="#f8ad72" stroke-width="1.4" stroke-linejoin="round"/><path d="M32 10 L47 25 H38 V51" stroke="white" stroke-width="2" stroke-opacity=".33" fill="none" stroke-linejoin="round"/><path d="M15 27 L32 10 L32 27 Z" fill="white" opacity=".18"/></g></svg>